# xmcd CD database file
#
# Track frame offsets:
#	150
#	19582
#	37580
#	61864
#	79975
#	96567
#	114105
#	133185
#	149447
#	167142
#	181462
#	196412
#	213822
#	235087
#	256062
#	277135
#	299910
#
# Disc length: 4257 seconds
#
# Revision: 0
# Processed by: cddbd v1.4b42PL1 Copyright (c) Steve Scherf et al.
# Submitted via: CDex 1.40Beta6
#
DISCID=f9109f11
DTITLE=Vários - Stai Con Me
DYEAR=1900
DGENRE=Italiana
TTITLE0=Come Mai
TTITLE1=La Solitudene - Laura Pausini
TTITLE2=Amici Mai - Antonello Venditti
TTITLE3=Vattene Amore - Mietta and Amedeo Minghi
TTITLE4=Gesu Gesu - Pino Daniele
TTITLE5=O Marenariello - Roberto Murolo and Mia Martini
TTITLE6=E'festa - Fabio Cocato
TTITLE7=Oi Senorita - Nino Buonocore
TTITLE8=Musica - Amedeo Minghi
TTITLE9=Comme E Ddoce O Mare - Peppino Di Capri
TTITLE10=Succede - Mario Lavezzi
TTITLE11=Mariu - Roberto Vecchioni
TTITLE12=Un'altra Te - Eros Ramazzotti
TTITLE13=Mare Mare - Luca Carboni
TTITLE14=Se Stiamo Insieme - Ricardo Cocciante
TTITLE15=Ti Comunico Amore - Gianni Morandi
TTITLE16=Strani Amore - Laura Pausini
EXTD=
EXTT0=
EXTT1=
EXTT2=
EXTT3=
EXTT4=
EXTT5=
EXTT6=
EXTT7=
EXTT8=
EXTT9=
EXTT10=
EXTT11=
EXTT12=
EXTT13=
EXTT14=
EXTT15=
EXTT16=
PLAYORDER=
